<svg width="389" height="188" viewBox="0 0 389 188" fill="none" xmlns="http://www.w3.org/2000/svg">
<mask id="mask0" mask-type="alpha" maskUnits="userSpaceOnUse" x="0" y="-2" width="399" height="190">
<path d="M399 -2H0V188H399V-2Z" fill="white"/>
</mask>
<g mask="url(#mask0)">
<path fill-rule="evenodd" clip-rule="evenodd" d="M305.496 188H315V178.516H305.496V188Z" fill="#572EE5"/>
<path fill-rule="evenodd" clip-rule="evenodd" d="M296.67 188H306.175V178.516H296.67V188Z" fill="#572EE5"/>
<path fill-rule="evenodd" clip-rule="evenodd" d="M287.166 188H296.67V178.516H287.166V188Z" fill="#572EE5"/>
<path fill-rule="evenodd" clip-rule="evenodd" d="M278.341 188H287.845V178.516H278.341V188Z" fill="#572EE5"/>
<path fill-rule="evenodd" clip-rule="evenodd" d="M269.515 188H279.019V178.516H269.515V188Z" fill="#572EE5"/>
<path fill-rule="evenodd" clip-rule="evenodd" d="M260.69 188H270.194V178.516H260.69V188Z" fill="#572EE5"/>
<path fill-rule="evenodd" clip-rule="evenodd" d="M251.185 188H260.69V178.516H251.185V188Z" fill="#572EE5"/>
<path fill-rule="evenodd" clip-rule="evenodd" d="M242.36 188H251.864V178.516H242.36V188Z" fill="#572EE5"/>
<path fill-rule="evenodd" clip-rule="evenodd" d="M233.534 188H243.039V178.516H233.534V188Z" fill="#572EE5"/>
<path fill-rule="evenodd" clip-rule="evenodd" d="M224.709 188H234.213V178.516H224.709V188Z" fill="#572EE5"/>
<path fill-rule="evenodd" clip-rule="evenodd" d="M215.884 188H225.388V178.516H215.884V188Z" fill="#572EE5"/>
<path fill-rule="evenodd" clip-rule="evenodd" d="M206.379 188H215.884V178.516H206.379V188Z" fill="#572EE5"/>
<path fill-rule="evenodd" clip-rule="evenodd" d="M197.554 188H207.058V178.516H197.554V188Z" fill="#572EE5"/>
<path fill-rule="evenodd" clip-rule="evenodd" d="M188.728 188H198.233V178.516H188.728V188Z" fill="#572EE5"/>
<path fill-rule="evenodd" clip-rule="evenodd" d="M179.903 188H189.407V178.516H179.903V188Z" fill="#572EE5"/>
<path fill-rule="evenodd" clip-rule="evenodd" d="M170.399 188H179.903V178.516H170.399V188Z" fill="#572EE5"/>
<path fill-rule="evenodd" clip-rule="evenodd" d="M161.573 188H171.078V178.516H161.573V188Z" fill="#572EE5"/>
<path fill-rule="evenodd" clip-rule="evenodd" d="M143.922 188H153.427V178.516H143.922V188Z" fill="#572EE5"/>
<path fill-rule="evenodd" clip-rule="evenodd" d="M125.593 188H135.097V178.516H125.593V188Z" fill="#572EE5"/>
<path fill-rule="evenodd" clip-rule="evenodd" d="M107.942 188H117.446V178.516H107.942V188Z" fill="#572EE5"/>
<path fill-rule="evenodd" clip-rule="evenodd" d="M99.1164 188H108.621V178.516H99.1164V188Z" fill="#572EE5"/>
<path fill-rule="evenodd" clip-rule="evenodd" d="M80.7866 188H90.2909V178.516H80.7866V188Z" fill="#572EE5"/>
<path fill-rule="evenodd" clip-rule="evenodd" d="M63.1358 188H72.6401V178.516H63.1358V188Z" fill="#572EE5"/>
<path fill-rule="evenodd" clip-rule="evenodd" d="M44.806 188H54.3103V178.516H44.806V188Z" fill="#572EE5"/>
<path fill-rule="evenodd" clip-rule="evenodd" d="M27.1552 188H36.6595V178.516H27.1552V188Z" fill="#572EE5"/>
<path fill-rule="evenodd" clip-rule="evenodd" d="M8.82542 188H36.6595V178.516H8.82542V188Z" fill="#572EE5"/>
<path fill-rule="evenodd" clip-rule="evenodd" d="M8.82542 188H18.3297V178.516H8.82542V188Z" fill="#572EE5"/>
<path fill-rule="evenodd" clip-rule="evenodd" d="M305.496 179.194H315V169.71H305.496V179.194Z" fill="#572EE5"/>
<path fill-rule="evenodd" clip-rule="evenodd" d="M296.67 179.194H306.175V169.71H296.67V179.194Z" fill="#572EE5"/>
<path fill-rule="evenodd" clip-rule="evenodd" d="M287.166 179.194H296.67V169.71H287.166V179.194Z" fill="#572EE5"/>
<path fill-rule="evenodd" clip-rule="evenodd" d="M278.341 179.194H287.845V169.71H278.341V179.194Z" fill="#572EE5"/>
<path fill-rule="evenodd" clip-rule="evenodd" d="M269.515 179.194H279.019V169.71H269.515V179.194Z" fill="#572EE5"/>
<path fill-rule="evenodd" clip-rule="evenodd" d="M260.69 179.194H270.194V169.71H260.69V179.194Z" fill="#572EE5"/>
<path fill-rule="evenodd" clip-rule="evenodd" d="M251.185 179.194H260.69V169.71H251.185V179.194Z" fill="#572EE5"/>
<path fill-rule="evenodd" clip-rule="evenodd" d="M242.36 179.194H251.864V169.71H242.36V179.194Z" fill="#572EE5"/>
<path fill-rule="evenodd" clip-rule="evenodd" d="M224.709 179.194H234.213V169.71H224.709V179.194Z" fill="#572EE5"/>
<path fill-rule="evenodd" clip-rule="evenodd" d="M215.884 179.194H225.388V169.71H215.884V179.194Z" fill="#572EE5"/>
<path fill-rule="evenodd" clip-rule="evenodd" d="M206.379 179.194H215.884V169.71H206.379V179.194Z" fill="#572EE5"/>
<path fill-rule="evenodd" clip-rule="evenodd" d="M197.554 179.194H207.058V169.71H197.554V179.194Z" fill="#572EE5"/>
<path fill-rule="evenodd" clip-rule="evenodd" d="M179.903 179.194H189.407V169.71H179.903V179.194Z" fill="#572EE5"/>
<path fill-rule="evenodd" clip-rule="evenodd" d="M161.573 179.194H171.078V169.71H161.573V179.194Z" fill="#572EE5"/>
<path fill-rule="evenodd" clip-rule="evenodd" d="M152.748 179.194H162.252V169.71H152.748V179.194Z" fill="#572EE5"/>
<path fill-rule="evenodd" clip-rule="evenodd" d="M134.418 179.194H143.922V169.71H134.418V179.194Z" fill="#572EE5"/>
<path fill-rule="evenodd" clip-rule="evenodd" d="M116.767 179.194H126.272V169.71H116.767V179.194Z" fill="#572EE5"/>
<path fill-rule="evenodd" clip-rule="evenodd" d="M99.1164 179.194H108.621V169.71H99.1164V179.194Z" fill="#572EE5"/>
<path fill-rule="evenodd" clip-rule="evenodd" d="M80.7866 179.194H90.2909V169.71H80.7866V179.194Z" fill="#572EE5"/>
<path fill-rule="evenodd" clip-rule="evenodd" d="M63.1358 179.194H72.6401V169.71H63.1358V179.194Z" fill="#572EE5"/>
<path fill-rule="evenodd" clip-rule="evenodd" d="M44.806 179.194H54.3103V169.71H44.806V179.194Z" fill="#572EE5"/>
<path fill-rule="evenodd" clip-rule="evenodd" d="M27.1552 179.194H36.6595V169.71H27.1552V179.194Z" fill="#572EE5"/>
<path fill-rule="evenodd" clip-rule="evenodd" d="M8.82542 179.194H18.3297V169.71H8.82542V179.194Z" fill="#572EE5"/>
<path fill-rule="evenodd" clip-rule="evenodd" d="M0 179.194H9.50431V169.71H0V179.194Z" fill="#572EE5"/>
<path fill-rule="evenodd" clip-rule="evenodd" d="M305.496 170.387H315V160.903H305.496V170.387Z" fill="#572EE5"/>
<path fill-rule="evenodd" clip-rule="evenodd" d="M287.166 170.387H296.67V160.903H287.166V170.387Z" fill="#572EE5"/>
<path fill-rule="evenodd" clip-rule="evenodd" d="M269.515 170.387H279.019V160.903H269.515V170.387Z" fill="#572EE5"/>
<path fill-rule="evenodd" clip-rule="evenodd" d="M260.69 170.387H270.194V160.903H260.69V170.387Z" fill="#572EE5"/>
<path fill-rule="evenodd" clip-rule="evenodd" d="M251.185 170.387H260.69V160.903H251.185V170.387Z" fill="#572EE5"/>
<path fill-rule="evenodd" clip-rule="evenodd" d="M242.36 170.387H251.864V160.903H242.36V170.387Z" fill="#572EE5"/>
<path fill-rule="evenodd" clip-rule="evenodd" d="M233.534 170.387H243.039V160.903H233.534V170.387Z" fill="#572EE5"/>
<path fill-rule="evenodd" clip-rule="evenodd" d="M224.709 170.387H234.213V160.903H224.709V170.387Z" fill="#572EE5"/>
<path fill-rule="evenodd" clip-rule="evenodd" d="M215.884 170.387H225.388V160.903H215.884V170.387Z" fill="#572EE5"/>
<path fill-rule="evenodd" clip-rule="evenodd" d="M206.379 170.387H215.884V160.903H206.379V170.387Z" fill="#572EE5"/>
<path fill-rule="evenodd" clip-rule="evenodd" d="M197.554 170.387H207.058V160.903H197.554V170.387Z" fill="#572EE5"/>
<path fill-rule="evenodd" clip-rule="evenodd" d="M188.728 170.387H198.233V160.903H188.728V170.387Z" fill="#572EE5"/>
<path fill-rule="evenodd" clip-rule="evenodd" d="M170.399 170.387H179.903V160.903H170.399V170.387Z" fill="#572EE5"/>
<path fill-rule="evenodd" clip-rule="evenodd" d="M152.748 170.387H162.252V160.903H152.748V170.387Z" fill="#572EE5"/>
<path fill-rule="evenodd" clip-rule="evenodd" d="M125.593 170.387H135.097V160.903H125.593V170.387Z" fill="#572EE5"/>
<path fill-rule="evenodd" clip-rule="evenodd" d="M107.942 170.387H117.446V160.903H107.942V170.387Z" fill="#572EE5"/>
<path fill-rule="evenodd" clip-rule="evenodd" d="M89.6121 170.387H99.1164V160.903H89.6121V170.387Z" fill="#572EE5"/>
<path fill-rule="evenodd" clip-rule="evenodd" d="M71.9612 170.387H81.4655V160.903H71.9612V170.387Z" fill="#572EE5"/>
<path fill-rule="evenodd" clip-rule="evenodd" d="M53.6315 170.387H63.1358V160.903H53.6315V170.387Z" fill="#572EE5"/>
<path fill-rule="evenodd" clip-rule="evenodd" d="M35.9806 170.387H45.4849V160.903H35.9806V170.387Z" fill="#572EE5"/>
<path fill-rule="evenodd" clip-rule="evenodd" d="M17.6509 170.387H27.1552V160.903H17.6509V170.387Z" fill="#572EE5"/>
<path fill-rule="evenodd" clip-rule="evenodd" d="M305.496 160.903H315V151.419H305.496V160.903Z" fill="#572EE5"/>
<path fill-rule="evenodd" clip-rule="evenodd" d="M296.67 160.903H306.175V151.419H296.67V160.903Z" fill="#572EE5"/>
<path fill-rule="evenodd" clip-rule="evenodd" d="M287.166 160.903H296.67V151.419H287.166V160.903Z" fill="#572EE5"/>
<path fill-rule="evenodd" clip-rule="evenodd" d="M278.341 160.903H287.845V151.419H278.341V160.903Z" fill="#572EE5"/>
<path fill-rule="evenodd" clip-rule="evenodd" d="M269.515 160.903H279.019V151.419H269.515V160.903Z" fill="#572EE5"/>
<path fill-rule="evenodd" clip-rule="evenodd" d="M251.185 160.903H260.69V151.419H251.185V160.903Z" fill="#572EE5"/>
<path fill-rule="evenodd" clip-rule="evenodd" d="M233.534 160.903H243.039V151.419H233.534V160.903Z" fill="#572EE5"/>
<path fill-rule="evenodd" clip-rule="evenodd" d="M215.884 160.903H225.388V151.419H215.884V160.903Z" fill="#572EE5"/>
<path fill-rule="evenodd" clip-rule="evenodd" d="M206.379 160.903H215.884V151.419H206.379V160.903Z" fill="#572EE5"/>
<path fill-rule="evenodd" clip-rule="evenodd" d="M197.554 160.903H207.058V151.419H197.554V160.903Z" fill="#572EE5"/>
<path fill-rule="evenodd" clip-rule="evenodd" d="M188.728 160.903H198.233V151.419H188.728V160.903Z" fill="#572EE5"/>
<path fill-rule="evenodd" clip-rule="evenodd" d="M170.399 160.903H179.903V151.419H170.399V160.903Z" fill="#572EE5"/>
<path fill-rule="evenodd" clip-rule="evenodd" d="M143.922 160.903H153.427V151.419H143.922V160.903Z" fill="#572EE5"/>
<path fill-rule="evenodd" clip-rule="evenodd" d="M116.767 160.903H126.272V151.419H116.767V160.903Z" fill="#572EE5"/>
<path fill-rule="evenodd" clip-rule="evenodd" d="M80.7866 160.903H90.2909V151.419H80.7866V160.903Z" fill="#572EE5"/>
<path fill-rule="evenodd" clip-rule="evenodd" d="M63.1358 160.903H72.6401V151.419H63.1358V160.903Z" fill="#572EE5"/>
<path fill-rule="evenodd" clip-rule="evenodd" d="M44.806 160.903H54.3103V151.419H44.806V160.903Z" fill="#572EE5"/>
<path fill-rule="evenodd" clip-rule="evenodd" d="M27.1552 160.903H36.6595V151.419H27.1552V160.903Z" fill="#572EE5"/>
<path fill-rule="evenodd" clip-rule="evenodd" d="M296.67 152.097H306.175V142.613H296.67V152.097Z" fill="#572EE5"/>
<path fill-rule="evenodd" clip-rule="evenodd" d="M278.341 152.097H287.845V142.613H278.341V152.097Z" fill="#572EE5"/>
<path fill-rule="evenodd" clip-rule="evenodd" d="M269.515 152.097H279.019V142.613H269.515V152.097Z" fill="#572EE5"/>
<path fill-rule="evenodd" clip-rule="evenodd" d="M260.69 152.097H270.194V142.613H260.69V152.097Z" fill="#572EE5"/>
<path fill-rule="evenodd" clip-rule="evenodd" d="M242.36 152.097H251.864V142.613H242.36V152.097Z" fill="#572EE5"/>
<path fill-rule="evenodd" clip-rule="evenodd" d="M224.709 152.097H234.213V142.613H224.709V152.097Z" fill="#572EE5"/>
<path fill-rule="evenodd" clip-rule="evenodd" d="M206.379 152.097H215.884V142.613H206.379V152.097Z" fill="#572EE5"/>
<path fill-rule="evenodd" clip-rule="evenodd" d="M188.728 152.097H198.233V142.613H188.728V152.097Z" fill="#572EE5"/>
<path fill-rule="evenodd" clip-rule="evenodd" d="M170.399 152.097H179.903V142.613H170.399V152.097Z" fill="#572EE5"/>
<path fill-rule="evenodd" clip-rule="evenodd" d="M152.748 152.097H162.252V142.613H152.748V152.097Z" fill="#572EE5"/>
<path fill-rule="evenodd" clip-rule="evenodd" d="M134.418 152.097H143.922V142.613H134.418V152.097Z" fill="#572EE5"/>
<path fill-rule="evenodd" clip-rule="evenodd" d="M99.1164 152.097H108.621V142.613H99.1164V152.097Z" fill="#572EE5"/>
<path fill-rule="evenodd" clip-rule="evenodd" d="M80.7866 152.097H90.2909V142.613H80.7866V152.097Z" fill="#572EE5"/>
<path fill-rule="evenodd" clip-rule="evenodd" d="M63.1358 152.097H72.6401V142.613H63.1358V152.097Z" fill="#572EE5"/>
<path fill-rule="evenodd" clip-rule="evenodd" d="M44.806 152.097H54.3103V142.613H44.806V152.097Z" fill="#572EE5"/>
<path fill-rule="evenodd" clip-rule="evenodd" d="M296.67 143.29H306.175V133.806H296.67V143.29Z" fill="#572EE5"/>
<path fill-rule="evenodd" clip-rule="evenodd" d="M278.341 143.29H287.845V133.806H278.341V143.29Z" fill="#572EE5"/>
<path fill-rule="evenodd" clip-rule="evenodd" d="M260.69 143.29H270.194V133.806H260.69V143.29Z" fill="#572EE5"/>
<path fill-rule="evenodd" clip-rule="evenodd" d="M251.185 143.29H260.69V133.806H251.185V143.29Z" fill="#572EE5"/>
<path fill-rule="evenodd" clip-rule="evenodd" d="M233.534 143.29H243.039V133.806H233.534V143.29Z" fill="#572EE5"/>
<path fill-rule="evenodd" clip-rule="evenodd" d="M215.884 143.29H225.388V133.806H215.884V143.29Z" fill="#572EE5"/>
<path fill-rule="evenodd" clip-rule="evenodd" d="M197.554 143.29H207.058V133.806H197.554V143.29Z" fill="#572EE5"/>
<path fill-rule="evenodd" clip-rule="evenodd" d="M170.399 143.29H179.903V133.806H170.399V143.29Z" fill="#572EE5"/>
<path fill-rule="evenodd" clip-rule="evenodd" d="M116.767 143.29H126.272V133.806H116.767V143.29Z" fill="#572EE5"/>
<path fill-rule="evenodd" clip-rule="evenodd" d="M71.9612 143.29H81.4655V133.806H71.9612V143.29Z" fill="#572EE5"/>
<path fill-rule="evenodd" clip-rule="evenodd" d="M53.6315 143.29H63.1358V133.806H53.6315V143.29Z" fill="#572EE5"/>
<path fill-rule="evenodd" clip-rule="evenodd" d="M35.9806 143.29H45.4849V133.806H35.9806V143.29Z" fill="#572EE5"/>
<path fill-rule="evenodd" clip-rule="evenodd" d="M17.6509 143.29H27.1552V133.806H17.6509V143.29Z" fill="#572EE5"/>
<path fill-rule="evenodd" clip-rule="evenodd" d="M296.67 134.484H306.175V125H296.67V134.484Z" fill="#572EE5"/>
<path fill-rule="evenodd" clip-rule="evenodd" d="M278.341 134.484H287.845V125H278.341V134.484Z" fill="#572EE5"/>
<path fill-rule="evenodd" clip-rule="evenodd" d="M269.515 134.484H279.019V125H269.515V134.484Z" fill="#572EE5"/>
<path fill-rule="evenodd" clip-rule="evenodd" d="M251.185 134.484H260.69V125H251.185V134.484Z" fill="#572EE5"/>
<path fill-rule="evenodd" clip-rule="evenodd" d="M233.534 134.484H243.039V125H233.534V134.484Z" fill="#572EE5"/>
<path fill-rule="evenodd" clip-rule="evenodd" d="M215.884 134.484H225.388V125H215.884V134.484Z" fill="#572EE5"/>
<path fill-rule="evenodd" clip-rule="evenodd" d="M152.748 134.484H162.252V125H152.748V134.484Z" fill="#572EE5"/>
<path fill-rule="evenodd" clip-rule="evenodd" d="M134.418 134.484H143.922V125H134.418V134.484Z" fill="#572EE5"/>
<path fill-rule="evenodd" clip-rule="evenodd" d="M89.6121 134.484H99.1164V125H89.6121V134.484Z" fill="#572EE5"/>
<path fill-rule="evenodd" clip-rule="evenodd" d="M63.1358 134.484H72.6401V125H63.1358V134.484Z" fill="#572EE5"/>
<path fill-rule="evenodd" clip-rule="evenodd" d="M44.806 134.484H54.3103V125H44.806V134.484Z" fill="#572EE5"/>
<path fill-rule="evenodd" clip-rule="evenodd" d="M8.82542 134.484H18.3297V125H8.82542V134.484Z" fill="#572EE5"/>
<path fill-rule="evenodd" clip-rule="evenodd" d="M296.67 125H306.175V115.516H296.67V125Z" fill="#572EE5"/>
<path fill-rule="evenodd" clip-rule="evenodd" d="M278.341 125H287.845V115.516H278.341V125Z" fill="#572EE5"/>
<path fill-rule="evenodd" clip-rule="evenodd" d="M260.69 125H270.194V115.516H260.69V125Z" fill="#572EE5"/>
<path fill-rule="evenodd" clip-rule="evenodd" d="M242.36 125H251.864V115.516H242.36V125Z" fill="#572EE5"/>
<path fill-rule="evenodd" clip-rule="evenodd" d="M224.709 125H234.213V115.516H224.709V125Z" fill="#572EE5"/>
<path fill-rule="evenodd" clip-rule="evenodd" d="M206.379 125H215.884V115.516H206.379V125Z" fill="#572EE5"/>
<path fill-rule="evenodd" clip-rule="evenodd" d="M125.593 125H135.097V115.516H125.593V125Z" fill="#572EE5"/>
<path fill-rule="evenodd" clip-rule="evenodd" d="M107.942 125H117.446V115.516H107.942V125Z" fill="#572EE5"/>
<path fill-rule="evenodd" clip-rule="evenodd" d="M80.7866 125H90.2909V115.516H80.7866V125Z" fill="#572EE5"/>
<path fill-rule="evenodd" clip-rule="evenodd" d="M53.6315 125H63.1358V115.516H53.6315V125Z" fill="#572EE5"/>
<path fill-rule="evenodd" clip-rule="evenodd" d="M35.9806 125H45.4849V115.516H35.9806V125Z" fill="#572EE5"/>
<path fill-rule="evenodd" clip-rule="evenodd" d="M287.166 116.194H296.67V106.71H287.166V116.194Z" fill="#572EE5"/>
<path fill-rule="evenodd" clip-rule="evenodd" d="M269.515 116.194H279.019V106.71H269.515V116.194Z" fill="#572EE5"/>
<path fill-rule="evenodd" clip-rule="evenodd" d="M251.185 116.194H260.69V106.71H251.185V116.194Z" fill="#572EE5"/>
<path fill-rule="evenodd" clip-rule="evenodd" d="M233.534 116.194H243.039V106.71H233.534V116.194Z" fill="#572EE5"/>
<path fill-rule="evenodd" clip-rule="evenodd" d="M215.884 116.194H225.388V106.71H215.884V116.194Z" fill="#572EE5"/>
<path fill-rule="evenodd" clip-rule="evenodd" d="M143.922 116.194H153.427V106.71H143.922V116.194Z" fill="#572EE5"/>
<path fill-rule="evenodd" clip-rule="evenodd" d="M99.1164 116.194H108.621V106.71H99.1164V116.194Z" fill="#572EE5"/>
<path fill-rule="evenodd" clip-rule="evenodd" d="M71.9612 116.194H81.4655V106.71H71.9612V116.194Z" fill="#572EE5"/>
<path fill-rule="evenodd" clip-rule="evenodd" d="M8.82542 116.194H18.3297V106.71H8.82542V116.194Z" fill="#572EE5"/>
<path fill-rule="evenodd" clip-rule="evenodd" d="M260.69 107.387H270.194V97.9032H260.69V107.387Z" fill="#572EE5"/>
<path fill-rule="evenodd" clip-rule="evenodd" d="M242.36 107.387H251.864V97.9032H242.36V107.387Z" fill="#572EE5"/>
<path fill-rule="evenodd" clip-rule="evenodd" d="M188.728 107.387H198.233V97.9032H188.728V107.387Z" fill="#572EE5"/>
<path fill-rule="evenodd" clip-rule="evenodd" d="M161.573 107.387H171.078V97.9032H161.573V107.387Z" fill="#572EE5"/>
<path fill-rule="evenodd" clip-rule="evenodd" d="M63.1358 107.387H72.6401V97.9032H63.1358V107.387Z" fill="#572EE5"/>
<path fill-rule="evenodd" clip-rule="evenodd" d="M44.806 107.387H54.3103V97.9032H44.806V107.387Z" fill="#572EE5"/>
<path fill-rule="evenodd" clip-rule="evenodd" d="M233.534 98.5806H243.039V89.0968H233.534V98.5806Z" fill="#572EE5"/>
<path fill-rule="evenodd" clip-rule="evenodd" d="M215.884 98.5806H225.388V89.0968H215.884V98.5806Z" fill="#572EE5"/>
<path fill-rule="evenodd" clip-rule="evenodd" d="M152.748 98.5806H162.252V89.0968H152.748V98.5806Z" fill="#572EE5"/>
<path fill-rule="evenodd" clip-rule="evenodd" d="M134.418 98.5806H143.922V89.0968H134.418V98.5806Z" fill="#572EE5"/>
<path fill-rule="evenodd" clip-rule="evenodd" d="M35.9806 98.5806H45.4849V89.0968H35.9806V98.5806Z" fill="#572EE5"/>
<path fill-rule="evenodd" clip-rule="evenodd" d="M27.1552 89.109L17.6509 89.0968V98.5684L27.1552 98.5806V89.109Z" fill="#572EE5"/>
<path fill-rule="evenodd" clip-rule="evenodd" d="M233.534 71.4839H243.039V62H233.534V71.4839Z" fill="#572EE5"/>
<path fill-rule="evenodd" clip-rule="evenodd" d="M251.974 103.318C253.219 105.113 254.514 106.907 255.375 108.996C256.48 111.68 257.154 114.447 256.536 117.381C255.878 120.516 253.982 122.805 252.346 125.581C249.903 129.723 248.378 133.945 251.989 137.912C253.564 139.641 255.917 140.393 257.703 141.843C262.467 145.714 261.518 151.892 264.841 156.631C268.03 161.181 273.993 161.786 279.007 160.225C284.36 158.557 288.154 154.823 292.658 151.701C297.163 148.58 301.697 145.864 307.333 145.721C311.543 145.615 315.039 147.475 318.736 149.204C322.432 150.933 325.918 152.818 330.067 153.176C334.217 153.535 338.42 151.444 340.181 147.974C341.942 144.503 340.647 138.545 338.863 136.35C331.391 127.154 334.439 109.992 338.731 104.09C348.622 90.4925 343.828 83.2542 330.672 75.3655C322.841 70.6698 298.363 62.395 287.853 64.2724C277.924 66.0456 266.27 70.0994 256.085 73.3786C250.352 75.225 244.986 78.7334 244.096 85.4461C243.67 88.659 244.716 91.9296 246.214 94.903C247.712 97.8764 250.042 100.536 251.974 103.318Z" fill="#4A1EE3"/>
<path fill-rule="evenodd" clip-rule="evenodd" d="M278.753 91.9968C278.45 92.0243 278.152 91.8714 278.042 91.6108C277.912 91.3035 278.094 90.9636 278.449 90.8515C281.608 89.8486 284.911 89.2259 288.264 89.0017C288.641 88.9772 288.97 89.2207 288.998 89.5465C289.027 89.8731 288.745 90.1693 288.37 90.1834C285.139 90.3979 281.961 90.9977 278.918 91.9642C278.864 91.9812 278.808 91.9924 278.753 91.9968Z" fill="#431E41"/>
<path fill-rule="evenodd" clip-rule="evenodd" d="M307.4 89.9956C307.346 90.0024 307.291 90.0015 307.234 89.9916C304.093 89.4557 300.905 89.4272 297.756 89.909C297.401 89.9759 297.054 89.6632 297.006 89.2334C296.958 88.8027 297.216 88.4094 297.583 88.3533C300.852 87.8557 304.164 87.8833 307.427 88.4389C307.793 88.4998 308.047 88.8991 307.993 89.3278C307.948 89.6907 307.698 89.9592 307.4 89.9956Z" fill="#431E41"/>
<mask id="mask1" mask-type="alpha" maskUnits="userSpaceOnUse" x="247" y="56" width="117" height="134">
<path d="M247.737 56.5504H363.256V189.702H247.737V56.5504Z" fill="white"/>
</mask>
<g mask="url(#mask1)">
<path fill-rule="evenodd" clip-rule="evenodd" d="M284.531 128.561C284.529 128.592 284.529 128.624 284.528 128.655C284.238 134.065 281.377 139.177 276.783 142.197C268.714 147.502 247.494 196.034 247.739 196.806L363.256 184.847C363.245 183.589 362.788 181.975 362.453 179.58C361.472 172.555 323.298 138.741 319.359 136.5C315.895 134.528 313.243 131.389 311.814 127.733C311.701 127.443 311.594 127.149 311.496 126.852C311.477 126.795 311.459 126.739 311.441 126.682C311.347 126.386 311.261 126.084 311.181 125.779C311.162 125.704 311.141 125.63 311.122 125.554C311.051 125.268 310.991 124.976 310.935 124.683C310.919 124.594 310.897 124.506 310.883 124.416C310.819 124.05 310.765 123.68 310.726 123.306C310.725 123.3 310.724 123.294 310.724 123.287L310.619 122.279C322.872 111.058 320.429 87.4504 319.782 81.2194C318.213 66.1109 304.674 55.1332 289.542 56.6991C274.411 58.2659 263.416 71.7827 264.985 86.8912C265.662 93.416 268.322 118.998 284.488 126.299C284.499 126.431 284.503 126.56 284.511 126.691C284.55 127.316 284.56 127.94 284.531 128.561Z" fill="white"/>
</g>
<mask id="mask2" mask-type="alpha" maskUnits="userSpaceOnUse" x="247" y="56" width="117" height="134">
<path d="M247.737 56.5504H363.256V189.702H247.737V56.5504Z" fill="white"/>
</mask>
<g mask="url(#mask2)">
<path fill-rule="evenodd" clip-rule="evenodd" d="M284.531 128.561C284.529 128.592 284.529 128.624 284.528 128.655C284.238 134.065 281.377 139.177 276.783 142.197C268.714 147.502 247.494 196.034 247.739 196.806L363.256 184.847C363.245 183.589 362.788 181.975 362.453 179.58C361.472 172.555 323.298 138.741 319.359 136.5C315.895 134.528 313.243 131.389 311.814 127.733C311.701 127.443 311.594 127.149 311.496 126.852C311.477 126.795 311.459 126.739 311.441 126.682C311.347 126.386 311.261 126.084 311.181 125.779C311.162 125.704 311.141 125.63 311.122 125.554C311.051 125.268 310.991 124.976 310.935 124.683C310.919 124.594 310.897 124.506 310.883 124.416C310.819 124.05 310.765 123.68 310.726 123.306C310.725 123.3 310.724 123.294 310.724 123.287L310.619 122.279C322.872 111.058 320.429 87.4504 319.782 81.2194C318.213 66.1109 304.674 55.1332 289.542 56.6991C274.411 58.2659 263.416 71.7827 264.985 86.8912C265.662 93.416 268.322 118.998 284.488 126.299C284.499 126.431 284.503 126.56 284.511 126.691C284.55 127.316 284.56 127.94 284.531 128.561Z" stroke="#4A1EE3"/>
</g>
<path fill-rule="evenodd" clip-rule="evenodd" d="M364.631 179.213C363.623 172.203 362.749 165.147 360.232 158.457C355.669 146.326 346.545 138.94 333.279 138.657C328.828 138.561 324.422 138.461 320.378 136.226C320.344 136.206 320.311 136.185 320.276 136.165C316.328 142.01 309.35 146.259 301.041 147.094C292.457 147.957 284.487 144.976 279.401 139.731C278.57 140.54 277.654 141.273 276.656 141.91C268.369 147.204 257.065 145.715 250.442 153.897C247.231 157.863 246.186 163.068 245.732 168.092C244.97 176.536 251.173 243.989 251.173 243.989L370.667 232.965C370.654 231.709 364.976 181.604 364.631 179.213Z" fill="#50E3C2"/>
<path fill-rule="evenodd" clip-rule="evenodd" d="M298.959 151C311.149 151 321.472 145.455 325 137.796C323.327 137.458 321.691 136.925 320.112 136.058C320.078 136.04 320.046 136.018 320.013 136C316.142 141.685 309.3 145.818 301.152 146.632C292.736 147.472 284.923 144.571 279.936 139.47C279.122 140.255 278.223 140.969 277.245 141.589C276.837 141.847 276.42 142.085 276 142.311C280.871 147.539 289.331 151 298.959 151Z" fill="#50E3C2"/>
<path fill-rule="evenodd" clip-rule="evenodd" d="M385.625 92.6814C382.743 62.0222 364.173 37.3965 335.766 26.3112C335.674 26.0345 335.573 25.7586 335.456 25.481C333.044 19.8009 327.263 11.2087 320.638 5.76476C319.759 5.04408 318.529 4.3277 317.573 4.94149C316.425 5.67683 316.691 7.57165 317.508 8.66561C319.836 11.7828 324.008 17.6492 323.64 17.9242C323.155 18.2854 311.021 6.10528 308.275 4.56219C307.131 3.91909 305.588 3.69495 304.645 4.61046C302.488 6.70527 304.875 8.90698 305.444 9.45008C309.8 13.6139 313.562 17.6828 317.363 22.4871C312.039 19.2267 305.493 14.6388 298.857 10.6544C297.643 9.92508 295.966 9.48888 294.852 10.3639C293.907 11.1052 293.84 12.5845 294.375 13.6604C294.911 14.7371 295.899 15.5018 296.855 16.2242C302.025 20.1242 307.284 24.6155 312.639 28.2534C307.431 25.7233 298.123 21.8509 294.808 21.9897C292.014 22.1069 291.938 24.4931 292.017 25.1707C292.123 26.0664 293.047 26.5914 293.864 26.9646C299.257 29.4224 303.739 31.5965 307.9 33.5172C307.981 33.5542 314.065 36.418 314.156 36.449C311 37.3447 307.695 38.268 305.872 39.7801C304.684 40.7645 303.405 42.2309 303.991 43.6602C304.468 44.8171 305.898 45.1835 307.136 45.324C310.219 45.6731 323.916 43.7214 324.883 43.5507C326.43 43.2774 328.116 42.5335 329.643 41.5456C352.264 50.3076 367.056 69.8652 369.347 94.2262C371.189 113.816 364.322 131.735 352.258 138.818L360.508 153C378.233 142.591 388.091 118.917 385.625 92.6814Z" fill="white"/>
<path fill-rule="evenodd" clip-rule="evenodd" d="M385.625 92.6814C382.743 62.0222 364.173 37.3965 335.766 26.3112C335.674 26.0345 335.573 25.7586 335.456 25.481C333.044 19.8009 327.263 11.2087 320.638 5.76476C319.759 5.04408 318.529 4.3277 317.573 4.94149C316.425 5.67683 316.691 7.57165 317.508 8.66561C319.836 11.7828 324.008 17.6492 323.64 17.9242C323.155 18.2854 311.021 6.10528 308.275 4.56219C307.131 3.91909 305.588 3.69495 304.645 4.61046C302.488 6.70527 304.875 8.90698 305.444 9.45008C309.8 13.6139 313.562 17.6828 317.363 22.4871C312.039 19.2267 305.493 14.6388 298.857 10.6544C297.643 9.92508 295.966 9.48888 294.852 10.3639C293.907 11.1052 293.84 12.5845 294.375 13.6604C294.911 14.7371 295.899 15.5018 296.855 16.2242C302.025 20.1242 307.284 24.6155 312.639 28.2534C307.431 25.7233 298.123 21.8509 294.808 21.9897C292.014 22.1069 291.938 24.4931 292.017 25.1707C292.123 26.0664 293.047 26.5914 293.864 26.9646C299.257 29.4224 303.739 31.5965 307.9 33.5172C307.981 33.5542 314.065 36.418 314.156 36.449C311 37.3447 307.695 38.268 305.872 39.7801C304.684 40.7645 303.405 42.2309 303.991 43.6602C304.468 44.8171 305.898 45.1835 307.136 45.324C310.219 45.6731 323.916 43.7214 324.883 43.5507C326.43 43.2774 328.116 42.5335 329.643 41.5456C352.264 50.3076 367.056 69.8652 369.347 94.2262C371.189 113.816 364.322 131.735 352.258 138.818L360.508 153C378.233 142.591 388.091 118.917 385.625 92.6814Z" stroke="#4A1EE3"/>
<path fill-rule="evenodd" clip-rule="evenodd" d="M341.655 165L341 140.139C358.458 139.672 363.223 122.308 364.508 112L389 115.101C385.245 145.2 367.104 164.319 341.655 165Z" fill="#50E3C2"/>
<path fill-rule="evenodd" clip-rule="evenodd" d="M287.974 99.8022C288.15 101.455 287.411 102.884 286.32 102.993C285.23 103.103 284.203 101.853 284.026 100.199C283.849 98.5457 284.59 97.1162 285.68 97.0067C286.771 96.8971 287.798 98.1491 287.974 99.8022Z" fill="#431E41"/>
<path fill-rule="evenodd" clip-rule="evenodd" d="M304.974 98.8013C305.15 100.455 304.411 101.884 303.321 101.993C302.231 102.103 301.202 100.853 301.026 99.1987C300.849 97.5457 301.591 96.1162 302.68 96.0067C303.771 95.8971 304.799 97.1482 304.974 98.8013Z" fill="#431E41"/>
<path fill-rule="evenodd" clip-rule="evenodd" d="M284 110.126C285.24 114.5 290.255 117.479 295.876 116.936C301.496 116.393 305.749 112.517 306 108L284 110.126Z" fill="#4A1EE3"/>
<mask id="mask3" mask-type="alpha" maskUnits="userSpaceOnUse" x="128" y="132" width="139" height="58">
<path d="M128.781 132.321H266.374V189.704H128.781V132.321Z" fill="white"/>
</mask>
<g mask="url(#mask3)">
<path fill-rule="evenodd" clip-rule="evenodd" d="M264.992 247.311C265.177 245.864 264.902 243.938 264.892 241.133C264.863 232.908 270.193 156.815 260.81 151.791C247.904 144.882 226.736 138.546 222.519 135.358C217.856 131.833 184.258 131.836 175.765 133.067C175.765 133.067 172.403 135.155 172.173 135.263C161.964 140.1 135.765 140.7 135.765 140.7C131.506 144.778 129.36 229.76 128.816 239.596C128.74 240.98 128.788 242.11 128.951 243.035L264.992 247.311Z" fill="#4A1EE3"/>
</g>
<path fill-rule="evenodd" clip-rule="evenodd" d="M198.517 148.979C209.637 149.337 219.782 145.013 227 137.843C225.696 137.257 223.013 135.314 221.814 134.388C217.14 130.78 184.889 132.004 176.378 133.263C176.378 133.263 173.008 135.4 172.778 135.511C172.193 135.794 171.6 136.047 171 136.279C177.746 143.763 187.512 148.626 198.517 148.979Z" fill="#4A1EE3"/>
<path fill-rule="evenodd" clip-rule="evenodd" d="M199.556 143C199.221 143 198.884 142.995 198.546 142.983C190.308 142.72 182.481 139.131 177 133.12C181.914 129.006 182.737 122.642 182.898 117.518C182.899 117.511 183.075 111.952 183.42 101L216.982 102.077L216.461 118.597C216.293 123.927 216.71 129.924 221 134.198C215.303 139.878 207.706 143 199.557 143H199.556Z" fill="white"/>
<path fill-rule="evenodd" clip-rule="evenodd" d="M182.594 101C182.594 101 182.063 117.587 182.062 117.604C181.871 123.586 180.682 129.238 176 132.849C181.361 138.819 189.2 142.704 198.041 142.984C198.38 142.995 198.719 143 199.057 143C207.661 143 215.467 139.534 221 133.946C216.759 130.044 216.116 124.468 216.302 118.687L216.833 102.083L182.594 101ZM183.424 101.878L215.949 102.907L215.445 118.66C215.279 123.847 215.683 129.673 219.78 133.946C214.23 139.241 206.904 142.148 199.057 142.148C198.729 142.148 198.398 142.143 198.068 142.133C190.139 141.882 182.6 138.54 177.242 132.931C181.953 128.794 182.76 122.62 182.919 117.63C182.922 117.558 183.315 105.259 183.424 101.878Z" fill="#4A1EE3"/>
<path fill-rule="evenodd" clip-rule="evenodd" d="M226.706 75.0533C227.203 59.6079 218.49 48.4977 203.198 48.0153C187.907 47.5338 178.69 58.4505 178.194 73.8958C178.022 79.2359 172.375 98.2291 179.905 110.034C182.715 114.44 187.985 117.985 192.978 120.13C198.776 122.622 204.605 122.64 210.127 120.082C215.074 117.79 220.735 114.34 223.613 109.605C225.922 105.806 225.556 102.423 226.491 98.1057C227.532 93.3002 226.644 77.0153 226.706 75.0533Z" fill="white"/>
<path fill-rule="evenodd" clip-rule="evenodd" d="M194.998 90.0614C194.942 91.7177 194.004 93.0328 192.901 92.9994C191.797 92.966 190.947 91.5949 191.003 89.9386C191.057 88.2823 191.996 86.9672 193.099 87.0006C194.203 87.034 195.052 88.4051 194.998 90.0614Z" fill="#431E41"/>
<path fill-rule="evenodd" clip-rule="evenodd" d="M211.998 91.0614C211.942 92.7177 211.003 94.0328 209.901 93.9994C208.798 93.966 207.948 92.5949 208.002 90.9386C208.058 89.2823 208.997 87.9672 210.1 88.0006C211.202 88.034 212.052 89.4042 211.998 91.0614Z" fill="#431E41"/>
<path fill-rule="evenodd" clip-rule="evenodd" d="M186.696 79.9997C186.374 79.9899 186.088 79.7857 186.017 79.4889C185.932 79.1378 186.177 78.7912 186.565 78.7136C189.813 78.0694 194.178 77.9504 196.308 78.0159C196.705 78.0295 197.014 78.3316 196.999 78.6902C196.984 79.0481 196.654 79.3276 196.258 79.3163C196.218 79.3163 196.17 79.3133 196.124 79.3118C194.019 79.2516 189.926 79.3796 186.873 79.9847C186.814 79.9967 186.754 80.0012 186.696 79.9997Z" fill="#431E41"/>
<path fill-rule="evenodd" clip-rule="evenodd" d="M214.254 81.9996C214.196 81.9978 214.136 81.988 214.077 81.9702C210.991 81.0269 206.772 80.5968 204.704 80.5397H204.701C204.303 80.5272 203.989 80.1738 204 79.7499C204.01 79.3242 204.343 78.9887 204.742 79.0003C206.888 79.0494 211.26 79.5063 214.477 80.4888C214.86 80.6057 215.082 81.0332 214.972 81.4419C214.879 81.7881 214.577 82.0103 214.254 81.9996Z" fill="#431E41"/>
<path fill-rule="evenodd" clip-rule="evenodd" d="M226.288 61.0025C226.249 60.5631 224.004 61.5449 223.943 61.6063C222.303 63.2508 219.915 58.4506 220.013 60.852C220.196 65.2742 222.929 92.5409 219.755 95.6794C216.056 99.3351 184.989 98.4614 181.846 94.3056C178.746 90.2035 181.272 72.7483 181.763 68.0856C182.013 65.6946 182.036 61.9679 180.504 60.224C178.286 59.5544 179.123 60.5994 179.123 60.5994C176.94 66.5779 161.83 127.583 196.692 132.603C234.24 138.009 228.572 86.8817 226.288 61.0025Z" fill="#4A1EE3"/>
<path fill-rule="evenodd" clip-rule="evenodd" d="M190 99C190.593 103.9 195.111 107.81 200.731 107.993C206.352 108.176 211.102 104.567 212 99.7156L190 99Z" fill="white"/>
<path fill-rule="evenodd" clip-rule="evenodd" d="M207.835 68.21C205.218 69.6947 202.125 70.9524 199.256 70.0371C196.556 69.176 194.739 66.5928 192.119 65.5141C188.509 64.0276 184.425 65.7223 180.986 67.5648C177.625 69.3661 174.334 71.3455 170.745 72.6418C167.156 73.9382 163.171 74.5163 159.512 73.4289C155.853 72.3408 152.63 69.3343 152.072 65.5812C151.515 61.8289 154.246 57.6741 158.05 57.3317C159.917 57.164 161.749 57.8487 163.615 58.0302C168.708 58.5248 173.425 55.2405 176.815 51.4341C180.207 47.6276 182.843 43.1295 186.734 39.8289C190.627 36.5282 196.433 34.6486 200.883 37.1579C205.252 39.6215 207.004 45.4977 211.635 47.4323C216.384 49.416 225.616 45.4986 226.964 60.4767C227.32 64.4388 225.041 68.1464 221.069 66.3433C215.713 63.9132 212.813 65.3851 207.835 68.21Z" fill="#4A1EE3"/>
<path fill-rule="evenodd" clip-rule="evenodd" d="M111.89 17.7173C108.557 17.9098 99.6228 22.6763 94.6589 25.7036C99.6591 21.5635 104.479 16.5856 109.266 12.2023C110.153 11.3912 111.065 10.5336 111.494 9.41307C111.923 8.29255 111.708 6.83175 110.689 6.19072C109.486 5.43368 107.851 6.03261 106.708 6.8773C100.459 11.4891 94.3628 16.6913 89.3566 20.4541C92.6834 15.3104 96.0456 10.9005 99.9941 6.33766C100.508 5.74217 102.679 3.32154 100.311 1.45773C99.2766 0.643979 97.7535 1.01949 96.6716 1.77137C94.077 3.57503 83.1398 16.8631 82.6183 16.5529C82.222 16.3175 85.8156 10.0833 87.8361 6.75957C88.5449 5.59351 88.6227 3.6876 87.4009 3.07234C86.382 2.55849 85.2216 3.39114 84.4143 4.19458C78.9038 9.67344 74.351 17.6322 72.1604 23.4505C43.0739 37.3676 25.8294 64.7593 26.0013 96.8789C26.1455 123.914 38.8284 147.121 58.3127 156L66.8235 137.505C54.9211 132.081 46.5398 115.33 46.4413 96.7706C46.3118 72.5772 59.3842 51.9576 81.4156 41.5876C82.2712 41.8557 83.1217 42.0344 83.9238 42.0946C84.9082 42.1676 98.8163 42.7408 101.869 42.0877C103.094 41.8256 104.49 41.3195 104.851 40.1251C105.296 38.6488 103.869 37.3212 102.584 36.4636C100.606 35.1446 97.206 34.5577 93.9569 33.9829C94.0441 33.9442 99.8516 30.4984 99.9284 30.4529C103.903 28.1345 108.175 25.5326 113.329 22.5577C114.11 22.1066 114.983 21.4939 115 20.5951C115.012 19.9154 114.698 17.5557 111.89 17.7173Z" fill="white"/>
<path fill-rule="evenodd" clip-rule="evenodd" d="M111.89 17.7173C108.557 17.9098 99.6228 22.6763 94.6589 25.7036C99.6591 21.5635 104.479 16.5856 109.266 12.2023C110.153 11.3912 111.065 10.5336 111.494 9.41307C111.923 8.29255 111.708 6.83175 110.689 6.19072C109.486 5.43368 107.851 6.03261 106.708 6.8773C100.459 11.4891 94.3628 16.6913 89.3566 20.4541C92.6834 15.3104 96.0456 10.9005 99.9941 6.33766C100.508 5.74217 102.679 3.32154 100.311 1.45773C99.2766 0.643979 97.7535 1.01949 96.6716 1.77137C94.077 3.57503 83.1398 16.8631 82.6183 16.5529C82.222 16.3175 85.8156 10.0833 87.8361 6.75957C88.5449 5.59351 88.6226 3.6876 87.4009 3.07234C86.382 2.55849 85.2216 3.39114 84.4143 4.19458C78.9038 9.67344 74.351 17.6322 72.1604 23.4505C43.0739 37.3676 25.8294 64.7593 26.0013 96.8789C26.1455 123.914 38.8284 147.121 58.3127 156L66.8235 137.505C54.9211 132.081 46.5398 115.33 46.4413 96.7706C46.3118 72.5772 59.3842 51.9576 81.4156 41.5876C82.2712 41.8557 83.1217 42.0344 83.9238 42.0946C84.9082 42.1676 98.8163 42.7408 101.869 42.0877C103.094 41.8256 104.49 41.3195 104.851 40.1251C105.296 38.6488 103.869 37.3212 102.584 36.4636C100.606 35.1446 97.206 34.5577 93.9569 33.9829C94.0441 33.9442 99.8516 30.4984 99.9284 30.4529C103.903 28.1345 108.175 25.5326 113.329 22.5577C114.11 22.1066 114.983 21.4939 115 20.5951C115.012 19.9154 114.698 17.5557 111.89 17.7173Z" stroke="#4A1EE3"/>
<mask id="mask4" mask-type="alpha" maskUnits="userSpaceOnUse" x="24" y="111" width="177" height="79">
<path d="M24.3155 111.715H200.318V189.702H24.3155V111.715Z" fill="white"/>
</mask>
<g mask="url(#mask4)">
<path fill-rule="evenodd" clip-rule="evenodd" d="M200.318 199.311C194.97 181.175 171.845 153.329 153.834 146.901C151.856 145.973 149.736 145.187 147.437 144.591C142.52 143.32 137.652 142.055 133.766 138.453C129.022 134.053 86.1843 132.581 83.6657 133.495C78.9921 135.19 74.0275 135.244 69.1172 135.414C61.1962 132.077 55.8379 118.224 53.7122 111.715L24.3155 121.213C29.3596 136.655 35.8429 147.021 42.6795 153.925C42.5266 154.356 42.3704 154.787 42.227 155.217C39.092 164.632 32.9954 208.891 31.487 218.695C31.2746 220.075 31.2124 221.212 31.2832 222.155L166.269 239.58C166.597 238.149 171.004 201.774 171.27 198.962C171.409 197.497 178.457 206.336 178.594 204.87L200.318 199.311Z" fill="white"/>
</g>
<mask id="mask5" mask-type="alpha" maskUnits="userSpaceOnUse" x="24" y="111" width="177" height="79">
<path d="M24.3155 111.715H200.318V189.702H24.3155V111.715Z" fill="white"/>
</mask>
<g mask="url(#mask5)">
<path fill-rule="evenodd" clip-rule="evenodd" d="M200.318 199.311C194.97 181.175 171.845 153.329 153.834 146.901C151.856 145.973 149.736 145.187 147.437 144.591C142.52 143.32 137.652 142.055 133.766 138.453C129.022 134.053 86.1843 132.581 83.6657 133.495C78.9921 135.19 74.0275 135.244 69.1172 135.414C61.1962 132.077 55.8379 118.224 53.7122 111.715L24.3155 121.213C29.3596 136.655 35.8429 147.021 42.6795 153.925C42.5266 154.356 42.3704 154.787 42.227 155.217C39.092 164.632 32.9954 208.891 31.487 218.695C31.2746 220.075 31.2124 221.212 31.2832 222.155L166.269 239.58C166.597 238.149 171.004 201.774 171.27 198.962C171.409 197.497 178.457 206.336 178.594 204.87L200.318 199.311Z" stroke="#50E3C2"/>
</g>
<path fill-rule="evenodd" clip-rule="evenodd" d="M83 133.925L83.5706 134.69C89.2771 142.356 98.1312 147.463 107.861 148.704C117.79 149.97 127.824 147.132 135.393 140.918L136 140.42C135.147 139.873 134.325 139.256 133.543 138.541C132.157 137.272 130.982 135.818 130.025 134.244C123.829 137.943 114.272 139.836 109.12 139.179C104.222 138.555 94.4379 134.987 90.0366 130C88.2045 131.573 86.0858 132.838 83.75 133.675C83.5011 133.764 83.2506 133.844 83 133.925Z" fill="#50E3C2"/>
<path fill-rule="evenodd" clip-rule="evenodd" d="M108.096 144.734C117.094 145.9 125.665 143.164 132 137.883C128.132 133.545 128.037 127.874 128.793 122.078L130.959 105.429L96.7447 101C96.7447 101 94.58 117.631 94.5774 117.649C93.7971 123.646 92.0484 129.217 87 132.39C91.786 138.918 99.2616 143.591 108.096 144.734Z" fill="white"/>
<path fill-rule="evenodd" clip-rule="evenodd" d="M108.096 144.734C117.094 145.9 125.665 143.164 132 137.883C128.132 133.545 128.037 127.874 128.793 122.078L130.959 105.429L96.7447 101C96.7447 101 94.58 117.631 94.5774 117.649C93.7971 123.646 92.0484 129.217 87 132.39C91.786 138.918 99.2616 143.591 108.096 144.734Z" stroke="#4A1EE3"/>
<path fill-rule="evenodd" clip-rule="evenodd" d="M143.757 84.5491C145.768 69.2034 135.087 55.1799 119.902 53.2272C104.716 51.2737 90.7748 62.1316 88.7649 77.4764C88.0695 82.7818 84.2661 100.302 90.6077 112.794C93.8992 119.276 100.992 124.54 110.385 125.747C118.549 126.798 126.21 124.495 130.87 120.255C141.901 110.217 143.015 90.2148 143.757 84.5491Z" fill="white"/>
<path fill-rule="evenodd" clip-rule="evenodd" d="M143.757 84.5491C145.768 69.2034 135.087 55.1799 119.902 53.2272C104.716 51.2737 90.7748 62.1316 88.7649 77.4764C88.0695 82.7818 84.2661 100.302 90.6077 112.794C93.8992 119.276 100.992 124.54 110.385 125.747C118.549 126.798 126.21 124.495 130.87 120.255C141.901 110.217 143.015 90.2148 143.757 84.5491Z" stroke="#4A1EE3"/>
<path fill-rule="evenodd" clip-rule="evenodd" d="M138.842 108.949L87.3996 102.378C84.0053 101.944 81.6117 98.8859 82.0523 95.5461L82.2146 94.3131C82.6552 90.9732 85.7634 88.6179 89.1577 89.0514L140.6 95.6213C143.995 96.0557 146.388 99.1141 145.948 102.453L145.785 103.686C145.345 107.026 142.237 109.382 138.842 108.949Z" fill="white"/>
<path fill-rule="evenodd" clip-rule="evenodd" d="M107.96 95.248C107.741 96.8994 106.685 98.1273 105.602 97.9894C104.52 97.8525 103.821 96.4024 104.04 94.752C104.26 93.1006 105.315 91.8727 106.398 92.0106C107.48 92.1475 108.179 93.5976 107.96 95.248Z" fill="#431E41"/>
<path fill-rule="evenodd" clip-rule="evenodd" d="M124.96 97.2489C124.741 98.8994 123.685 100.127 122.603 99.9894C121.521 99.8525 120.82 98.4024 121.04 96.7519C121.261 95.1005 122.316 93.8735 123.398 94.0104C124.48 94.1474 125.179 95.5975 124.96 97.2489Z" fill="#431E41"/>
<path fill-rule="evenodd" clip-rule="evenodd" d="M100.583 83.7848C100.286 83.7396 100.042 83.4633 100.005 83.0994C99.9611 82.6687 100.223 82.2783 100.59 82.2272C103.911 81.763 108.282 82.1003 110.42 82.4376C110.787 82.4956 111.043 82.8909 110.994 83.3207C110.944 83.7484 110.61 84.0493 110.245 83.9933C110.212 83.9894 110.157 83.9795 110.111 83.9716C108.004 83.6511 103.88 83.3492 100.749 83.7858C100.692 83.7937 100.637 83.7927 100.583 83.7848Z" fill="#431E41"/>
<path fill-rule="evenodd" clip-rule="evenodd" d="M130.225 87.9939C130.17 87.9865 130.115 87.9717 130.061 87.9486C127.034 86.6627 123.859 85.8295 120.616 85.4701C120.244 85.4396 119.965 85.0664 120.004 84.6609C120.043 84.2563 120.38 83.9616 120.757 84.0041C124.123 84.3782 127.422 85.2419 130.566 86.5777C130.919 86.7274 131.091 87.156 130.952 87.5339C130.834 87.8544 130.53 88.0364 130.225 87.9939Z" fill="#431E41"/>
<path fill-rule="evenodd" clip-rule="evenodd" d="M94.4469 55.0339C90.9848 59.4456 85.6528 82.0071 87.3122 89C93.12 87.668 96.2188 82.7145 97.7657 74.4958C111.467 81.8027 126.859 85.5156 141.919 83.4021C142.756 83.2848 146.556 76.1668 146.556 76.1668C148.285 68.1043 147.542 40.8213 94.4469 55.0339Z" fill="#50E3C2"/>
<path fill-rule="evenodd" clip-rule="evenodd" d="M146 75.8351C144.62 74.8849 139.712 74.7891 138.295 74C137.135 75.7349 135.012 79.1595 135.111 79.1368C134.518 87.5588 136.254 93.1973 141.526 96C143.541 91.2542 145.404 85.7238 146 75.8351Z" fill="#50E3C2"/>
<path fill-rule="evenodd" clip-rule="evenodd" d="M102 103C102.127 107.875 106.283 112.162 111.904 112.893C117.525 113.624 122.635 110.543 124 105.861L102 103Z" fill="#4A1EE3"/>
<path fill-rule="evenodd" clip-rule="evenodd" d="M86.9603 147.434C87.0468 147.954 87.0528 148.571 86.3275 148.894C85.7777 149.136 83.6648 149.814 82.1615 148.458C80.378 146.846 79.0752 141.042 78.662 137.685C78.1856 141.448 76.9191 145.419 76.1212 149.168C75.9742 149.862 75.8039 150.583 75.1365 151.173C74.4691 151.763 73.149 152.174 72.0312 151.926C70.7111 151.633 70.2495 150.667 70.2746 149.841C70.4094 145.336 71.1148 140.695 71.2782 137.061C69.0072 140.399 67.3577 143.496 65.9226 146.919C65.7359 147.365 65.0184 149.217 62.1154 148.771C60.8463 148.575 60.2671 147.739 60.2524 146.975C60.2169 145.142 64.7193 135.435 64.1617 135.301C63.7389 135.2 60.7304 139.042 59.1882 141.138C58.647 141.874 57.1333 142.576 55.9169 142.225C54.9046 141.932 54.9097 141.103 55.0965 140.449C56.5048 135.511 61.0762 130.049 64.8057 127.14C68.0009 124.648 75.7175 126.783 81.737 128.413C87.0545 129.853 86.3923 144.007 86.9603 147.434Z" fill="white"/>
<path fill-rule="evenodd" clip-rule="evenodd" d="M86.9603 147.434C87.0468 147.954 87.0528 148.571 86.3275 148.894C85.7777 149.136 83.6648 149.814 82.1615 148.458C80.378 146.846 79.0752 141.042 78.662 137.685C78.1856 141.448 76.9191 145.419 76.1212 149.168C75.9742 149.862 75.8039 150.583 75.1365 151.173C74.4691 151.763 73.149 152.174 72.0312 151.926C70.7111 151.633 70.2495 150.667 70.2746 149.841C70.4094 145.336 71.1148 140.695 71.2782 137.061C69.0072 140.399 67.3577 143.496 65.9226 146.919C65.7359 147.365 65.0184 149.217 62.1154 148.771C60.8463 148.575 60.2671 147.739 60.2524 146.975C60.2169 145.142 64.7193 135.435 64.1617 135.301C63.7389 135.2 60.7304 139.042 59.1882 141.138C58.647 141.874 57.1333 142.576 55.9169 142.225C54.9046 141.932 54.9097 141.103 55.0965 140.449C56.5048 135.511 61.0762 130.049 64.8057 127.14C68.0009 124.648 75.7175 126.783 81.737 128.413C87.0545 129.853 86.3923 144.007 86.9603 147.434Z" stroke="#4A1EE3"/>
<path fill-rule="evenodd" clip-rule="evenodd" d="M395.575 207.05C408.094 200.98 406.642 241.649 405.308 244.518C388.976 279.674 345.97 269.439 308.682 247.63C286.02 234.375 241.175 203.086 254.532 172.413C257.483 165.631 288.38 163.948 288.404 175.535C288.446 196.204 327.469 240.067 395.575 207.05Z" fill="white"/>
<path fill-rule="evenodd" clip-rule="evenodd" d="M302 189C286.042 198.537 265.171 212.669 264.566 215.031C264.566 215.031 234.982 190.372 261 152C261 152 298.571 175.569 304 188L302 189Z" fill="#4A1EE3"/>
<path fill-rule="evenodd" clip-rule="evenodd" d="M271.528 94.7151C271.423 91.3892 267.364 86.0439 271.704 84.4305C275.845 82.8923 280.51 87.2052 284.625 87.2881C289.951 87.395 293.435 82.2761 296.897 80.0039C302.124 76.5711 306.439 78.2025 310.468 81.9617C313.934 85.1945 311.274 90.6081 316.502 93.2871C321.975 96.0918 330.04 93.4956 334.608 89.4741C337.91 86.5695 337.512 83.4606 335.126 80.4055C333.845 78.7648 331.898 77.988 330.419 76.6694C328.177 74.6714 327.48 73.0461 328.033 70.0124C328.444 67.7581 329.763 65.9259 329.924 63.446C330.674 51.9736 320.624 57.5871 314.072 53.839C306.868 49.7175 308.613 39.0458 298.596 42.7794C292.115 45.1952 291.443 52.4991 284.551 54.1621C276.269 56.1609 256.144 43.2819 254.729 59.7466C254.371 63.9151 256.8 66.6805 255.212 70.5166C254.151 73.0794 251.521 73.5451 249.92 75.585C246.119 80.4269 246.031 85.5089 249.642 91.0166C253.486 96.878 262.378 102.318 269.394 98.9819C271.368 98.0436 271.573 96.1601 271.528 94.7151Z" fill="#4A1EE3"/>
<path fill-rule="evenodd" clip-rule="evenodd" d="M291.324 67.3051C305.028 65.9102 317.432 74.5332 321 87.1481C320.857 84.7279 320.65 82.7679 320.518 81.5164C318.933 66.5018 305.252 55.5908 289.964 57.148C274.674 58.7042 263.564 72.1387 265.151 87.1541C265.338 88.9323 265.678 92.1379 266.406 96C265.58 81.5215 276.482 68.817 291.324 67.3051Z" fill="#50E3C2"/>
</g>
</svg>
