<svg xmlns="http://www.w3.org/2000/svg" xmlns:xlink="http://www.w3.org/1999/xlink" viewBox="0 0 264.28 254"><defs><style>.cls-1{fill:#fff;}.cls-2{fill:#5ed7c6;fill-rule:evenodd;}.cls-3{mask:url(#mask);}</style><mask id="mask" x="40.8" y="88.21" width="248.28" height="101.6" maskUnits="userSpaceOnUse"><g id="mask0"><path class="cls-1" d="M40.8,88.21H289.08v101.6H40.8Z"/></g></mask></defs><g id="Capa_2" data-name="Capa 2"><g id="Capa_1-2" data-name="Capa 1"><path class="cls-2" d="M0,0V254H254V199.57H235.86v36.29H18.14V18.14H181.43V72.57h54.43v36.29H254V54.43L199.57,0Z"/><g class="cls-3"><path class="cls-1" d="M98.55,164.67a16.88,16.88,0,0,1-7.82,6,31.59,31.59,0,0,1-11.63,2,22.73,22.73,0,0,1-11.94-3.13,21.34,21.34,0,0,1-8.08-9A31.13,31.13,0,0,1,56.17,147v-4.8q0-12.42,5.78-19.26t16.32-6.84q8.61,0,13.86,4.42T98.55,133H91.3q-2-10.91-13-10.91-7.29,0-11.07,5.14t-3.78,14.8v4.5q0,9.24,4.23,14.73a13.75,13.75,0,0,0,11.45,5.43,25.28,25.28,0,0,0,7.13-.9,11.18,11.18,0,0,0,5.07-3.06V150.4H78.61v-5.89H98.55Zm19.9,7.22H111.2v-55h7.25Zm43.63-24.29H139v24.29h-7.25v-55h34.06v6H139v18.81h23.08Zm54.72-1.43a34,34,0,0,1-2.72,14.12,20.55,20.55,0,0,1-7.7,9.18,21.28,21.28,0,0,1-31-9.1,32.91,32.91,0,0,1-2.83-13.71v-4a33.62,33.62,0,0,1,2.75-14,21.63,21.63,0,0,1,31-9.33,20.34,20.34,0,0,1,7.78,9.26,33.88,33.88,0,0,1,2.72,14.08Zm-7.21-3.55q0-9.78-3.93-15a14,14,0,0,0-21.83,0q-3.93,5.22-4,14.51v4q0,9.48,4,14.92a13,13,0,0,0,11,5.4q7,0,10.88-5.1t4-14.69Zm34.29,4.76q-9.33-2.69-13.6-6.58a12.65,12.65,0,0,1-4.22-9.66,13.27,13.27,0,0,1,5.17-10.73q5.21-4.27,13.52-4.27a22.37,22.37,0,0,1,10.08,2.19,16.41,16.41,0,0,1,6.88,6,15.38,15.38,0,0,1,2.45,8.42h-7.29A9.92,9.92,0,0,0,253.7,125c-2.11-1.91-5.1-2.87-8.95-2.87q-5.37,0-8.38,2.38a7.84,7.84,0,0,0-3,6.53,7.2,7.2,0,0,0,2.83,5.71q2.88,2.29,9.71,4.23a44,44,0,0,1,10.73,4.26,16.07,16.07,0,0,1,5.74,5.4,13.74,13.74,0,0,1,1.89,7.29,12.89,12.89,0,0,1-5.22,10.73q-5.2,4-13.93,4a26,26,0,0,1-10.58-2.15,18.08,18.08,0,0,1-7.59-6,14.57,14.57,0,0,1-2.64-8.57h7.29a9.55,9.55,0,0,0,3.66,7.89q3.71,2.88,9.86,2.87,5.75,0,8.8-2.34A7.6,7.6,0,0,0,257,158a7.42,7.42,0,0,0-2.84-6.23Q251.33,149.53,243.88,147.38Z"/></g></g></g></svg>